<svg width="119" height="40" viewBox="0 0 119 40" fill="none" xmlns="http://www.w3.org/2000/svg">
<path d="M8.44483 39.1249C8.14015 39.1249 7.84283 39.121 7.54054 39.1142C6.91432 39.1061 6.28957 39.0516 5.6714 38.9511C5.09499 38.8519 4.5366 38.6672 4.01466 38.4032C3.4975 38.1415 3.02581 37.7982 2.61766 37.3866C2.2036 36.9799 1.85888 36.5082 1.59715 35.9901C1.33254 35.4687 1.14941 34.9098 1.05415 34.3329C0.951273 33.7131 0.895613 33.0863 0.887649 32.4579C0.881309 32.247 0.873009 31.5448 0.873009 31.5448V8.44428C0.873009 8.44428 0.881849 7.75287 0.887699 7.54974C0.895325 6.92242 0.950661 6.29659 1.05323 5.67767C1.14867 5.09919 1.33194 4.53869 1.59669 4.01557C1.85745 3.49788 2.20026 3.0258 2.61183 2.61762C3.02293 2.20556 3.49613 1.86054 4.01417 1.59515C4.53491 1.33203 5.09224 1.14867 5.66749 1.05121C6.28769 0.949775 6.91461 0.894935 7.543 0.887149L8.44532 0.874939H111.214L112.127 0.887639C112.75 0.895038 113.371 0.949389 113.985 1.05023C114.566 1.14891 115.13 1.33355 115.656 1.59808C116.694 2.13293 117.539 2.9791 118.071 4.01801C118.332 4.53752 118.512 5.09345 118.606 5.66693C118.71 6.29093 118.768 6.92168 118.78 7.55414C118.783 7.83734 118.783 8.14154 118.783 8.44428C118.791 8.81928 118.791 9.17621 118.791 9.53607V30.4647C118.791 30.828 118.791 31.1825 118.783 31.5399C118.783 31.8651 118.783 32.163 118.779 32.4696C118.768 33.0908 118.71 33.7103 118.608 34.3231C118.515 34.9042 118.333 35.4674 118.068 35.9931C117.805 36.5056 117.462 36.9732 117.053 37.3788C116.644 37.7926 116.172 38.1379 115.653 38.4013C115.128 38.6673 114.566 38.8527 113.985 38.9511C113.367 39.0521 112.742 39.1066 112.116 39.1142C111.823 39.121 111.517 39.1249 111.219 39.1249L110.135 39.1269L8.44483 39.1249Z" fill="black"/>
</svg>
