<svg width="101" height="26" viewBox="0 0 101 26" fill="none" xmlns="http://www.w3.org/2000/svg">
<path d="M15.7689 12.3011C15.7796 11.4664 16.0013 10.648 16.4134 9.92207C16.8254 9.19611 17.4143 8.58618 18.1254 8.149C17.6737 7.50384 17.0777 6.9729 16.3849 6.59835C15.6921 6.2238 14.9215 6.01595 14.1343 5.99132C12.455 5.81506 10.8271 6.99615 9.97137 6.99615C9.0991 6.99615 7.7816 6.00882 6.36287 6.03801C5.4452 6.06766 4.55085 6.33451 3.76697 6.81257C2.98309 7.29063 2.33642 7.96359 1.88995 8.76588C-0.0440497 12.1143 1.39854 17.0354 3.25115 19.742C4.17805 21.0673 5.26133 22.5478 6.67878 22.4953C8.06584 22.4377 8.58388 21.6108 10.2582 21.6108C11.9169 21.6108 12.403 22.4953 13.8492 22.4619C15.3376 22.4377 16.2753 21.1306 17.1697 19.7927C17.8357 18.8484 18.3481 17.8047 18.6881 16.7002C17.8234 16.3345 17.0855 15.7223 16.5664 14.94C16.0472 14.1577 15.7699 13.2399 15.7689 12.3011Z" fill="white"/>
<path d="M13.0372 4.21126C13.8488 3.23705 14.2486 1.98487 14.1518 0.720642C12.9119 0.850863 11.7667 1.44342 10.9442 2.38025C10.542 2.83792 10.234 3.37035 10.0378 3.94712C9.84155 4.52389 9.7609 5.13369 9.80047 5.74164C10.4206 5.74803 11.0341 5.61361 11.5948 5.34853C12.1554 5.08344 12.6486 4.69459 13.0372 4.21126Z" fill="white"/>
<path d="M33.3022 19.1396H28.5688L27.4321 22.4961H25.4272L29.9106 10.0781H31.9936L36.477 22.4961H34.438L33.3022 19.1396ZM29.0591 17.5908H32.8111L30.9615 12.1435H30.9097L29.0591 17.5908Z" fill="white"/>
<path d="M46.1597 17.9694C46.1597 20.7829 44.6538 22.5905 42.3813 22.5905C41.8057 22.6206 41.2332 22.488 40.7294 22.2079C40.2256 21.9277 39.8109 21.5114 39.5327 21.0065H39.4897V25.4909H37.6313V13.442H39.4302V14.9479H39.4644C39.7553 14.4454 40.177 14.0312 40.6847 13.7494C41.1923 13.4676 41.7668 13.3286 42.3472 13.3473C44.645 13.3473 46.1597 15.1637 46.1597 17.9694ZM44.2495 17.9694C44.2495 16.1364 43.3022 14.9313 41.8569 14.9313C40.437 14.9313 39.4819 16.1618 39.4819 17.9694C39.4819 19.7936 40.437 21.0153 41.8569 21.0153C43.3022 21.0153 44.2495 19.819 44.2495 17.9694Z" fill="white"/>
<path d="M56.1245 17.9694C56.1245 20.7829 54.6187 22.5905 52.3462 22.5905C51.7705 22.6206 51.198 22.488 50.6942 22.2078C50.1905 21.9277 49.7757 21.5114 49.4976 21.0065H49.4546V25.4909H47.5962V13.442H49.395V14.9479H49.4292C49.7201 14.4454 50.1418 14.0312 50.6495 13.7494C51.1571 13.4675 51.7317 13.3286 52.312 13.3473C54.6099 13.3473 56.1245 15.1637 56.1245 17.9694ZM54.2144 17.9694C54.2144 16.1364 53.2671 14.9313 51.8218 14.9313C50.4018 14.9313 49.4468 16.1618 49.4468 17.9694C49.4468 19.7936 50.4018 21.0153 51.8218 21.0153C53.2671 21.0153 54.2144 19.819 54.2144 17.9694H54.2144Z" fill="white"/>
<path d="M62.7104 19.0361C62.8481 20.2676 64.0444 21.0761 65.6792 21.0761C67.2456 21.0761 68.3726 20.2675 68.3726 19.1572C68.3726 18.1933 67.6929 17.6162 66.0835 17.2207L64.4741 16.833C62.1939 16.2822 61.1353 15.2158 61.1353 13.4853C61.1353 11.3427 63.0024 9.87103 65.6538 9.87103C68.2778 9.87103 70.0767 11.3427 70.1372 13.4853H68.2612C68.1489 12.246 67.1245 11.498 65.6274 11.498C64.1303 11.498 63.1059 12.2548 63.1059 13.3564C63.1059 14.2343 63.7602 14.7509 65.3608 15.1464L66.729 15.4823C69.2768 16.0849 70.3354 17.1083 70.3354 18.9247C70.3354 21.248 68.4848 22.703 65.5415 22.703C62.7876 22.703 60.9282 21.2821 60.8081 19.036L62.7104 19.0361Z" fill="white"/>
<path d="M74.3462 11.2998V13.4424H76.0679V14.9141H74.3462V19.9053C74.3462 20.6807 74.6909 21.042 75.4477 21.042C75.6521 21.0384 75.8562 21.0241 76.0591 20.999V22.4619C75.7188 22.5255 75.3729 22.5543 75.0268 22.5478C73.1938 22.5478 72.479 21.8593 72.479 20.1035V14.9141H71.1626V13.4424H72.479V11.2998H74.3462Z" fill="white"/>
<path d="M77.065 17.9697C77.065 15.1211 78.7427 13.3311 81.3589 13.3311C83.9839 13.3311 85.6538 15.1211 85.6538 17.9697C85.6538 20.8262 83.9927 22.6084 81.3589 22.6084C78.7261 22.6084 77.065 20.8262 77.065 17.9697ZM83.7603 17.9697C83.7603 16.0156 82.8648 14.8623 81.3589 14.8623C79.853 14.8623 78.9585 16.0244 78.9585 17.9697C78.9585 19.9316 79.853 21.0762 81.3589 21.0762C82.8648 21.0762 83.7602 19.9316 83.7602 17.9697H83.7603Z" fill="white"/>
<path d="M87.186 13.442H88.9585V14.983H89.0015C89.1214 14.5017 89.4034 14.0763 89.8 13.7785C90.1966 13.4806 90.6836 13.3283 91.1792 13.3472C91.3934 13.3465 91.607 13.3697 91.816 13.4166V15.1548C91.5456 15.0722 91.2635 15.0343 90.981 15.0425C90.711 15.0316 90.4418 15.0792 90.192 15.1821C89.9421 15.285 89.7175 15.4407 89.5335 15.6386C89.3496 15.8365 89.2106 16.0718 89.1262 16.3285C89.0417 16.5852 89.0139 16.8571 89.0444 17.1255V22.4957H87.186L87.186 13.442Z" fill="white"/>
<path d="M100.384 19.8369C100.134 21.4805 98.5337 22.6084 96.4858 22.6084C93.852 22.6084 92.2173 20.8437 92.2173 18.0127C92.2173 15.1729 93.8608 13.3311 96.4077 13.3311C98.9126 13.3311 100.488 15.0518 100.488 17.7969V18.4336H94.0933V18.5459C94.0638 18.8791 94.1055 19.2148 94.2156 19.5306C94.3258 19.8464 94.5019 20.1352 94.7323 20.3778C94.9627 20.6203 95.242 20.8111 95.5517 20.9374C95.8615 21.0637 96.1945 21.1226 96.5288 21.1103C96.968 21.1515 97.4087 21.0498 97.7854 20.8203C98.1621 20.5909 98.4547 20.246 98.6196 19.8369L100.384 19.8369ZM94.1021 17.1348H98.6284C98.6451 16.8352 98.5997 16.5354 98.495 16.2541C98.3903 15.9729 98.2286 15.7164 98.0201 15.5006C97.8116 15.2849 97.5607 15.1145 97.2833 15.0003C97.0058 14.8861 96.7077 14.8305 96.4077 14.8369C96.1051 14.8351 95.8051 14.8933 95.525 15.008C95.245 15.1227 94.9905 15.2918 94.7761 15.5054C94.5617 15.7191 94.3918 15.973 94.2761 16.2527C94.1604 16.5323 94.1013 16.8321 94.1021 17.1348V17.1348Z" fill="white"/>
</svg>
